<svg xmlns="http://www.w3.org/2000/svg" width="710" height="457" font-family="system-ui, -apple-system, sans-serif">

  <!-- Page background -->
  <rect width="710" height="457" fill="#f0f4fa"/>

  <!-- Top bar -->
  <rect width="710" height="48" fill="#ffffff"/>
  <line x1="0" y1="48" x2="710" y2="48" stroke="#dde1ea" stroke-width="1"/>

  <!-- Search bar in top bar -->
  <rect x="90" y="10" width="280" height="28" rx="6" fill="#f4f6fb" stroke="#dde1ea" stroke-width="1"/>
  <text x="104" y="29" font-size="13" fill="#1a1e38">Partnersuche</text>
  <text x="210" y="29" font-size="13" fill="#9098b0">Müller GmbH</text>

  <!-- Top-right action -->
  <text x="630" y="29" font-size="12" fill="#3060c0">← Partner wechseln</text>

  <!-- Sidebar background -->
  <rect x="0" y="48" width="148" height="409" fill="#ffffff"/>
  <line x1="148" y1="48" x2="148" y2="457" stroke="#dde1ea" stroke-width="1"/>

  <!-- Nav: Dashboard (active) -->
  <rect x="8" y="58" width="132" height="28" rx="5" fill="#e6edff"/>
  <rect x="18" y="67" width="10" height="10" rx="2" fill="#1e50be"/>
  <text x="34" y="77" font-size="12" fill="#1e3080" font-weight="600">Dashboard</text>

  <!-- Nav: Aufgaben -->
  <rect x="18" y="97" width="10" height="10" rx="2" fill="#c8cfe0"/>
  <text x="34" y="107" font-size="12" fill="#606880">Aufgaben</text>

  <!-- Nav section label: Partnerwesen -->
  <text x="10" y="130" font-size="9" fill="#a0a8c0" letter-spacing="1">PARTNERWESEN</text>

  <!-- Nav: Partner -->
  <circle cx="22" cy="144" r="4" fill="#c8cfe0"/>
  <text x="34" y="149" font-size="12" fill="#606880">Partner</text>

  <!-- Nav: Anträge -->
  <circle cx="22" cy="167" r="4" fill="#c8cfe0"/>
  <text x="34" y="172" font-size="12" fill="#606880">Anträge</text>

  <!-- Nav: Personen -->
  <circle cx="22" cy="190" r="4" fill="#c8cfe0"/>
  <text x="34" y="195" font-size="12" fill="#606880">Personen</text>

  <!-- Nav divider -->
  <line x1="10" y1="208" x2="138" y2="208" stroke="#eef1f8" stroke-width="1"/>

  <!-- Nav section label: Verwaltung -->
  <text x="10" y="224" font-size="9" fill="#a0a8c0" letter-spacing="1">VERWALTUNG</text>

  <!-- Nav: Einstellungen -->
  <circle cx="22" cy="238" r="4" fill="#c8cfe0"/>
  <text x="34" y="243" font-size="12" fill="#606880">Einstellungen</text>

  <!-- Nav: Benutzerverwaltung -->
  <circle cx="22" cy="261" r="4" fill="#c8cfe0"/>
  <text x="34" y="266" font-size="12" fill="#606880">Benutzerverwaltung</text>

  <!-- ── Main content area ── -->

  <!-- Partner header card -->
  <rect x="156" y="56" width="546" height="96" rx="8" fill="#ffffff" stroke="#dde1ea" stroke-width="1"/>

  <!-- Partner avatar -->
  <rect x="170" y="72" width="36" height="36" rx="18" fill="#e6edff"/>
  <text x="188" y="95" text-anchor="middle" font-size="16" fill="#1e50be">P</text>

  <!-- Partner name -->
  <text x="216" y="89" font-size="16" font-weight="700" fill="#1a1e38">Müller Maschinenbau GmbH</text>

  <!-- Status badges -->
  <rect x="216" y="96" width="90" height="16" rx="4" fill="#d0f0e0"/>
  <text x="261" y="108" text-anchor="middle" font-size="10" fill="#1a7040">● Partner Aktiv</text>
  <rect x="314" y="96" width="76" height="16" rx="4" fill="#fff0cc"/>
  <text x="352" y="108" text-anchor="middle" font-size="10" fill="#8a5a00">⚠ 2 Anträge</text>

  <!-- Partner address -->
  <text x="216" y="128" font-size="11" fill="#606880">100042 | Hauptstraße 12, 80331 München | HRB 55210</text>

  <!-- Action buttons -->
  <rect x="524" y="68" width="60" height="28" rx="5" fill="#f4f6fb" stroke="#dde1ea" stroke-width="1"/>
  <text x="554" y="87" text-anchor="middle" font-size="12" fill="#3060a0">Details</text>
  <rect x="592" y="68" width="100" height="28" rx="5" fill="#1e50be"/>
  <text x="642" y="87" text-anchor="middle" font-size="11" fill="#ffffff">+ Antrag anlegen</text>

  <!-- Breadcrumb -->
  <rect x="156" y="160" width="130" height="26" rx="5" fill="#f4f6fb" stroke="#dde1ea" stroke-width="1"/>
  <text x="172" y="178" font-size="12" fill="#3060a0">← Zurück zur Übersicht</text>

  <!-- Current Antrag card (compact) -->
  <rect x="156" y="194" width="546" height="40" rx="6" fill="#f8faff" stroke="#dde1ea" stroke-width="1"/>
  <rect x="166" y="202" width="24" height="24" rx="4" fill="#e6edff"/>
  <text x="178" y="219" text-anchor="middle" font-size="12" fill="#1e50be">📄</text>
  <text x="200" y="210" font-size="13" font-weight="600" fill="#1a1e38">ANT-2026-0042</text>
  <text x="200" y="226" font-size="11" fill="#9098b0">Antrag-Details</text>
  <rect x="608" y="204" width="82" height="22" rx="4" fill="#eef1f8"/>
  <text x="649" y="219" text-anchor="middle" font-size="11" fill="#606880">Entwurf</text>

  <!-- Stammdaten card (left column) -->
  <rect x="156" y="242" width="278" height="118" rx="8" fill="#ffffff" stroke="#dde1ea" stroke-width="1"/>
  <text x="170" y="262" font-size="13" font-weight="600" fill="#1a1e38">📋 Stammdaten</text>

  <text x="170" y="284" font-size="9" fill="#9098b0" letter-spacing="1">PARTNER-NUMMER</text>
  <text x="170" y="298" font-size="12" fill="#1a1e38">100042</text>

  <text x="310" y="284" font-size="9" fill="#9098b0" letter-spacing="1">STATUS</text>
  <rect x="308" y="288" width="46" height="16" rx="3" fill="#d0f0e0"/>
  <text x="331" y="300" text-anchor="middle" font-size="10" fill="#1a7040">Aktiv</text>

  <text x="170" y="322" font-size="9" fill="#9098b0" letter-spacing="1">ERÖFFNUNGSDATUM</text>
  <text x="170" y="336" font-size="12" fill="#1a1e38">01.01.2024</text>

  <text x="310" y="322" font-size="9" fill="#9098b0" letter-spacing="1">GÜLTIG BIS</text>
  <text x="310" y="336" font-size="12" fill="#1a1e38">31.12.2027</text>

  <!-- Antragssumme card (right column) -->
  <rect x="442" y="242" width="260" height="118" rx="8" fill="#ffffff" stroke="#dde1ea" stroke-width="1"/>
  <text x="456" y="262" font-size="13" font-weight="600" fill="#1a1e38">📈 Antragssumme</text>

  <text x="456" y="282" font-size="9" fill="#9098b0" letter-spacing="1">BEANTRAGTE SUMME</text>
  <text x="456" y="300" font-size="18" font-weight="700" fill="#1a1e38">24.000,00 €</text>

  <text x="456" y="320" font-size="9" fill="#9098b0" letter-spacing="1">ANTEIL AM GESAMTLIMIT</text>
  <rect x="456" y="325" width="120" height="8" rx="4" fill="#eef1f8"/>
  <rect x="456" y="325" width="58" height="8" rx="4" fill="#1e50be"/>
  <text x="588" y="334" font-size="11" fill="#1a1e38" font-weight="600">48,0%</text>

  <text x="456" y="352" font-size="10" fill="#9098b0">Von insgesamt 50.000,00 €</text>
  <text x="456" y="364" font-size="10" fill="#9098b0">Selbstprüfungsgrenze (SPG)</text>

  <!-- Produkte & Regionen card (bottom left) -->
  <rect x="156" y="368" width="278" height="82" rx="8" fill="#ffffff" stroke="#dde1ea" stroke-width="1"/>
  <text x="170" y="388" font-size="13" font-weight="600" fill="#1a1e38">🌍 Produkte &amp; Regionen</text>

  <text x="170" y="406" font-size="9" fill="#9098b0" letter-spacing="1">WARENWERT</text>
  <text x="170" y="420" font-size="13" font-weight="600" fill="#1a1e38">24.000,00 €</text>
  <text x="170" y="434" font-size="11" fill="#9098b0">Gesamtwarenwert</text>

  <text x="310" y="406" font-size="9" fill="#9098b0" letter-spacing="1">VERWENDUNGSZWECK</text>
  <text x="310" y="420" font-size="12" fill="#1a1e38">Betriebsausstattung</text>

  <!-- Zuständige Stelle card (bottom right) -->
  <rect x="442" y="368" width="260" height="82" rx="8" fill="#ffffff" stroke="#dde1ea" stroke-width="1"/>
  <text x="456" y="388" font-size="13" font-weight="600" fill="#1a1e38">👤 Zuständige Stelle</text>

  <text x="456" y="406" font-size="9" fill="#9098b0" letter-spacing="1">ABTEILUNG</text>
  <text x="456" y="420" font-size="12" font-weight="600" fill="#1a1e38">Kreditmanagement</text>

  <text x="456" y="436" font-size="9" fill="#9098b0" letter-spacing="1">SACHBEARBEITER/IN</text>
  <circle cx="466" cy="448" r="8" fill="#e6edff"/>
  <text x="466" y="452" text-anchor="middle" font-size="9" fill="#1e50be">TF</text>
  <text x="480" y="452" font-size="12" fill="#1a1e38">Thomas Fischer</text>

</svg>
